<svg xmlns="http://www.w3.org/2000/svg" viewBox="0 0 900 300" width="900" height="300" role="img" aria-label="Bilim">
  <title>Bilim</title>

  <rect x="1" y="1" width="898" height="298" rx="16" fill="#0d1117" stroke="#21262d" stroke-width="1"/>

  <g opacity="0.06" fill="#8fb89a">
    <g transform="translate(120,64) scale(1.3) rotate(18)"><path d="M0 0 C0 -7,-6 -9,-8 -5 C-10 -1,-5 0,0 0 Z"/><path d="M0 0 C0 -7,6 -9,8 -5 C10 -1,5 0,0 0 Z"/><path d="M0 0 C0 7,-6 9,-8 5 C-10 1,-5 0,0 0 Z"/><path d="M0 0 C0 7,6 9,8 5 C10 1,5 0,0 0 Z"/></g>
    <g transform="translate(782,86) scale(1.15) rotate(-24)"><path d="M0 0 C0 -7,-6 -9,-8 -5 C-10 -1,-5 0,0 0 Z"/><path d="M0 0 C0 -7,6 -9,8 -5 C10 -1,5 0,0 0 Z"/><path d="M0 0 C0 7,-6 9,-8 5 C-10 1,-5 0,0 0 Z"/><path d="M0 0 C0 7,6 9,8 5 C10 1,5 0,0 0 Z"/></g>
  </g>

  <text x="450" y="168" text-anchor="middle" fill="#e6edf3" stroke="#e6edf3" stroke-width="1.4" font-family="ui-monospace, SFMono-Regular, Menlo, Consolas, monospace" font-size="76" font-weight="500" letter-spacing="8">Bilim</text>

  <g fill="#7ea88a">
    <g transform="translate(410,224) scale(0.8) rotate(-12)"><path d="M0 0 C0 -7,-6 -9,-8 -5 C-10 -1,-5 0,0 0 Z"/><path d="M0 0 C0 -7,6 -9,8 -5 C10 -1,5 0,0 0 Z"/><path d="M0 0 C0 7,-6 9,-8 5 C-10 1,-5 0,0 0 Z"/><path d="M0 0 C0 7,6 9,8 5 C10 1,5 0,0 0 Z" fill="#5f8a6d"/></g>
    <g transform="translate(451,222) scale(1.05) rotate(8)"><path d="M0 0 C0 -7,-6 -9,-8 -5 C-10 -1,-5 0,0 0 Z"/><path d="M0 0 C0 -7,6 -9,8 -5 C10 -1,5 0,0 0 Z"/><path d="M0 0 C0 7,-6 9,-8 5 C-10 1,-5 0,0 0 Z"/><path d="M0 0 C0 7,6 9,8 5 C10 1,5 0,0 0 Z" fill="#5f8a6d"/></g>
    <g transform="translate(491,226) scale(0.82) rotate(20)"><path d="M0 0 C0 -7,-6 -9,-8 -5 C-10 -1,-5 0,0 0 Z"/><path d="M0 0 C0 -7,6 -9,8 -5 C10 -1,5 0,0 0 Z"/><path d="M0 0 C0 7,-6 9,-8 5 C-10 1,-5 0,0 0 Z"/><path d="M0 0 C0 7,6 9,8 5 C10 1,5 0,0 0 Z" fill="#5f8a6d"/></g>
  </g>

  <g fill="#5f8a6d">
    <g opacity="0.24" transform="translate(58,272) scale(1.25) rotate(-16)"><path d="M0 0 C0 -7,-6 -9,-8 -5 C-10 -1,-5 0,0 0 Z"/><path d="M0 0 C0 -7,6 -9,8 -5 C10 -1,5 0,0 0 Z"/><path d="M0 0 C0 7,-6 9,-8 5 C-10 1,-5 0,0 0 Z"/><path d="M0 0 C0 7,6 9,8 5 C10 1,5 0,0 0 Z"/></g>
    <g opacity="0.15" transform="translate(112,285) scale(0.72) rotate(34)"><path d="M0 0 C0 -7,-6 -9,-8 -5 C-10 -1,-5 0,0 0 Z"/><path d="M0 0 C0 -7,6 -9,8 -5 C10 -1,5 0,0 0 Z"/><path d="M0 0 C0 7,-6 9,-8 5 C-10 1,-5 0,0 0 Z"/><path d="M0 0 C0 7,6 9,8 5 C10 1,5 0,0 0 Z"/></g>
    <g opacity="0.2" transform="translate(178,266) scale(0.95) rotate(52)"><path d="M0 0 C0 -7,-6 -9,-8 -5 C-10 -1,-5 0,0 0 Z"/><path d="M0 0 C0 -7,6 -9,8 -5 C10 -1,5 0,0 0 Z"/><path d="M0 0 C0 7,-6 9,-8 5 C-10 1,-5 0,0 0 Z"/><path d="M0 0 C0 7,6 9,8 5 C10 1,5 0,0 0 Z"/></g>
    <g opacity="0.13" transform="translate(238,288) scale(0.6) rotate(-8)"><path d="M0 0 C0 -7,-6 -9,-8 -5 C-10 -1,-5 0,0 0 Z"/><path d="M0 0 C0 -7,6 -9,8 -5 C10 -1,5 0,0 0 Z"/><path d="M0 0 C0 7,-6 9,-8 5 C-10 1,-5 0,0 0 Z"/><path d="M0 0 C0 7,6 9,8 5 C10 1,5 0,0 0 Z"/></g>
    <g opacity="0.22" transform="translate(300,274) scale(1.1) rotate(28)"><path d="M0 0 C0 -7,-6 -9,-8 -5 C-10 -1,-5 0,0 0 Z"/><path d="M0 0 C0 -7,6 -9,8 -5 C10 -1,5 0,0 0 Z"/><path d="M0 0 C0 7,-6 9,-8 5 C-10 1,-5 0,0 0 Z"/><path d="M0 0 C0 7,6 9,8 5 C10 1,5 0,0 0 Z"/></g>
    <g opacity="0.14" transform="translate(366,287) scale(0.68) rotate(-30)"><path d="M0 0 C0 -7,-6 -9,-8 -5 C-10 -1,-5 0,0 0 Z"/><path d="M0 0 C0 -7,6 -9,8 -5 C10 -1,5 0,0 0 Z"/><path d="M0 0 C0 7,-6 9,-8 5 C-10 1,-5 0,0 0 Z"/><path d="M0 0 C0 7,6 9,8 5 C10 1,5 0,0 0 Z"/></g>
    <g opacity="0.18" transform="translate(560,283) scale(0.82) rotate(42)"><path d="M0 0 C0 -7,-6 -9,-8 -5 C-10 -1,-5 0,0 0 Z"/><path d="M0 0 C0 -7,6 -9,8 -5 C10 -1,5 0,0 0 Z"/><path d="M0 0 C0 7,-6 9,-8 5 C-10 1,-5 0,0 0 Z"/><path d="M0 0 C0 7,6 9,8 5 C10 1,5 0,0 0 Z"/></g>
    <g opacity="0.23" transform="translate(620,268) scale(1.15) rotate(-20)"><path d="M0 0 C0 -7,-6 -9,-8 -5 C-10 -1,-5 0,0 0 Z"/><path d="M0 0 C0 -7,6 -9,8 -5 C10 -1,5 0,0 0 Z"/><path d="M0 0 C0 7,-6 9,-8 5 C-10 1,-5 0,0 0 Z"/><path d="M0 0 C0 7,6 9,8 5 C10 1,5 0,0 0 Z"/></g>
    <g opacity="0.13" transform="translate(680,288) scale(0.62) rotate(14)"><path d="M0 0 C0 -7,-6 -9,-8 -5 C-10 -1,-5 0,0 0 Z"/><path d="M0 0 C0 -7,6 -9,8 -5 C10 -1,5 0,0 0 Z"/><path d="M0 0 C0 7,-6 9,-8 5 C-10 1,-5 0,0 0 Z"/><path d="M0 0 C0 7,6 9,8 5 C10 1,5 0,0 0 Z"/></g>
    <g opacity="0.2" transform="translate(742,272) scale(0.98) rotate(-38)"><path d="M0 0 C0 -7,-6 -9,-8 -5 C-10 -1,-5 0,0 0 Z"/><path d="M0 0 C0 -7,6 -9,8 -5 C10 -1,5 0,0 0 Z"/><path d="M0 0 C0 7,-6 9,-8 5 C-10 1,-5 0,0 0 Z"/><path d="M0 0 C0 7,6 9,8 5 C10 1,5 0,0 0 Z"/></g>
    <g opacity="0.15" transform="translate(806,286) scale(0.7) rotate(46)"><path d="M0 0 C0 -7,-6 -9,-8 -5 C-10 -1,-5 0,0 0 Z"/><path d="M0 0 C0 -7,6 -9,8 -5 C10 -1,5 0,0 0 Z"/><path d="M0 0 C0 7,-6 9,-8 5 C-10 1,-5 0,0 0 Z"/><path d="M0 0 C0 7,6 9,8 5 C10 1,5 0,0 0 Z"/></g>
    <g opacity="0.22" transform="translate(852,270) scale(1.08) rotate(-10)"><path d="M0 0 C0 -7,-6 -9,-8 -5 C-10 -1,-5 0,0 0 Z"/><path d="M0 0 C0 -7,6 -9,8 -5 C10 -1,5 0,0 0 Z"/><path d="M0 0 C0 7,-6 9,-8 5 C-10 1,-5 0,0 0 Z"/><path d="M0 0 C0 7,6 9,8 5 C10 1,5 0,0 0 Z"/></g>
  </g>
</svg>
