<svg xmlns="http://www.w3.org/2000/svg" viewBox="0 0 900 300" preserveAspectRatio="xMidYMid meet" role="img" aria-label="Bilim">
  <title>Bilim</title>

  <rect x="1" y="1" width="898" height="298" rx="16" fill="#0d1117" stroke="#21262d" stroke-width="1"/>

  <g opacity="0.06" fill="#8fb89a">
    <g transform="translate(120,64) scale(1.3) rotate(18)"><path d="M0 0 C0 -7,-6 -9,-8 -5 C-10 -1,-5 0,0 0 Z"/><path d="M0 0 C0 -7,6 -9,8 -5 C10 -1,5 0,0 0 Z"/><path d="M0 0 C0 7,-6 9,-8 5 C-10 1,-5 0,0 0 Z"/><path d="M0 0 C0 7,6 9,8 5 C10 1,5 0,0 0 Z"/></g>
    <g transform="translate(782,86) scale(1.15) rotate(-24)"><path d="M0 0 C0 -7,-6 -9,-8 -5 C-10 -1,-5 0,0 0 Z"/><path d="M0 0 C0 -7,6 -9,8 -5 C10 -1,5 0,0 0 Z"/><path d="M0 0 C0 7,-6 9,-8 5 C-10 1,-5 0,0 0 Z"/><path d="M0 0 C0 7,6 9,8 5 C10 1,5 0,0 0 Z"/></g>
  </g>

  <g fill="#e6edf3">
    <path transform="translate(319.98,168.00) scale(0.03711,-0.03711)" d="M1186 385Q1186 204 1062.0 102.0Q938 0 719 0H137V1349H662Q880 1349 992.5 1261.5Q1105 1174 1105 1010Q1105 895 1039.0 816.5Q973 738 836 709Q1007 691 1096.5 607.0Q1186 523 1186 385ZM808 970Q808 1130 641 1130H432V811H643Q808 811 808 970ZM889 410Q889 498 836.0 545.5Q783 593 682 593H432V219H689Q889 219 889 410Z"/>
    <path transform="translate(373.59,168.00) scale(0.03711,-0.03711)" d="M794 190H1147V0H118V190H513V892H223V1082H794ZM513 1277V1484H794V1277Z"/>
    <path transform="translate(427.20,168.00) scale(0.03711,-0.03711)" d="M930 192 1147 190V0L798 5Q699 22 607 93Q564 126 538 206Q515 274 513 376V1294H223V1484H794V344Q796 258 817 234Q844 203 930 192ZM936 190ZM794 344ZM803 0ZM513 376Z"/>
    <path transform="translate(480.80,168.00) scale(0.03711,-0.03711)" d="M794 190H1147V0H118V190H513V892H223V1082H794ZM513 1277V1484H794V1277Z"/>
    <path transform="translate(534.41,168.00) scale(0.03711,-0.03711)" d="M501 0V658Q501 807 482.5 865.0Q464 923 414 923Q363 923 333.5 829.0Q304 735 304 582V0H75V851Q75 1040 69 1082H278L284 955V907H286Q320 1009 372.0 1055.5Q424 1102 502 1102Q590 1102 633.5 1054.0Q677 1006 696 906H698Q738 1012 793.5 1057.0Q849 1102 934 1102Q1052 1102 1103.0 1016.0Q1154 930 1154 721V0H926V658Q926 807 907.5 865.0Q889 923 839 923Q788 923 758.5 842.5Q729 762 729 601V0Z"/>
  </g>

  <g fill="#7ea88a">
    <g transform="translate(410,224) scale(0.8) rotate(-12)"><path d="M0 0 C0 -7,-6 -9,-8 -5 C-10 -1,-5 0,0 0 Z"/><path d="M0 0 C0 -7,6 -9,8 -5 C10 -1,5 0,0 0 Z"/><path d="M0 0 C0 7,-6 9,-8 5 C-10 1,-5 0,0 0 Z"/><path d="M0 0 C0 7,6 9,8 5 C10 1,5 0,0 0 Z" fill="#5f8a6d"/></g>
    <g transform="translate(451,222) scale(1.05) rotate(8)"><path d="M0 0 C0 -7,-6 -9,-8 -5 C-10 -1,-5 0,0 0 Z"/><path d="M0 0 C0 -7,6 -9,8 -5 C10 -1,5 0,0 0 Z"/><path d="M0 0 C0 7,-6 9,-8 5 C-10 1,-5 0,0 0 Z"/><path d="M0 0 C0 7,6 9,8 5 C10 1,5 0,0 0 Z" fill="#5f8a6d"/></g>
    <g transform="translate(491,226) scale(0.82) rotate(20)"><path d="M0 0 C0 -7,-6 -9,-8 -5 C-10 -1,-5 0,0 0 Z"/><path d="M0 0 C0 -7,6 -9,8 -5 C10 -1,5 0,0 0 Z"/><path d="M0 0 C0 7,-6 9,-8 5 C-10 1,-5 0,0 0 Z"/><path d="M0 0 C0 7,6 9,8 5 C10 1,5 0,0 0 Z" fill="#5f8a6d"/></g>
  </g>

  <g fill="#5f8a6d">
    <g opacity="0.24" transform="translate(58,272) scale(1.25) rotate(-16)"><path d="M0 0 C0 -7,-6 -9,-8 -5 C-10 -1,-5 0,0 0 Z"/><path d="M0 0 C0 -7,6 -9,8 -5 C10 -1,5 0,0 0 Z"/><path d="M0 0 C0 7,-6 9,-8 5 C-10 1,-5 0,0 0 Z"/><path d="M0 0 C0 7,6 9,8 5 C10 1,5 0,0 0 Z"/></g>
    <g opacity="0.15" transform="translate(112,285) scale(0.72) rotate(34)"><path d="M0 0 C0 -7,-6 -9,-8 -5 C-10 -1,-5 0,0 0 Z"/><path d="M0 0 C0 -7,6 -9,8 -5 C10 -1,5 0,0 0 Z"/><path d="M0 0 C0 7,-6 9,-8 5 C-10 1,-5 0,0 0 Z"/><path d="M0 0 C0 7,6 9,8 5 C10 1,5 0,0 0 Z"/></g>
    <g opacity="0.2" transform="translate(178,266) scale(0.95) rotate(52)"><path d="M0 0 C0 -7,-6 -9,-8 -5 C-10 -1,-5 0,0 0 Z"/><path d="M0 0 C0 -7,6 -9,8 -5 C10 -1,5 0,0 0 Z"/><path d="M0 0 C0 7,-6 9,-8 5 C-10 1,-5 0,0 0 Z"/><path d="M0 0 C0 7,6 9,8 5 C10 1,5 0,0 0 Z"/></g>
    <g opacity="0.13" transform="translate(238,288) scale(0.6) rotate(-8)"><path d="M0 0 C0 -7,-6 -9,-8 -5 C-10 -1,-5 0,0 0 Z"/><path d="M0 0 C0 -7,6 -9,8 -5 C10 -1,5 0,0 0 Z"/><path d="M0 0 C0 7,-6 9,-8 5 C-10 1,-5 0,0 0 Z"/><path d="M0 0 C0 7,6 9,8 5 C10 1,5 0,0 0 Z"/></g>
    <g opacity="0.22" transform="translate(300,274) scale(1.1) rotate(28)"><path d="M0 0 C0 -7,-6 -9,-8 -5 C-10 -1,-5 0,0 0 Z"/><path d="M0 0 C0 -7,6 -9,8 -5 C10 -1,5 0,0 0 Z"/><path d="M0 0 C0 7,-6 9,-8 5 C-10 1,-5 0,0 0 Z"/><path d="M0 0 C0 7,6 9,8 5 C10 1,5 0,0 0 Z"/></g>
    <g opacity="0.14" transform="translate(366,287) scale(0.68) rotate(-30)"><path d="M0 0 C0 -7,-6 -9,-8 -5 C-10 -1,-5 0,0 0 Z"/><path d="M0 0 C0 -7,6 -9,8 -5 C10 -1,5 0,0 0 Z"/><path d="M0 0 C0 7,-6 9,-8 5 C-10 1,-5 0,0 0 Z"/><path d="M0 0 C0 7,6 9,8 5 C10 1,5 0,0 0 Z"/></g>
    <g opacity="0.18" transform="translate(560,283) scale(0.82) rotate(42)"><path d="M0 0 C0 -7,-6 -9,-8 -5 C-10 -1,-5 0,0 0 Z"/><path d="M0 0 C0 -7,6 -9,8 -5 C10 -1,5 0,0 0 Z"/><path d="M0 0 C0 7,-6 9,-8 5 C-10 1,-5 0,0 0 Z"/><path d="M0 0 C0 7,6 9,8 5 C10 1,5 0,0 0 Z"/></g>
    <g opacity="0.23" transform="translate(620,268) scale(1.15) rotate(-20)"><path d="M0 0 C0 -7,-6 -9,-8 -5 C-10 -1,-5 0,0 0 Z"/><path d="M0 0 C0 -7,6 -9,8 -5 C10 -1,5 0,0 0 Z"/><path d="M0 0 C0 7,-6 9,-8 5 C-10 1,-5 0,0 0 Z"/><path d="M0 0 C0 7,6 9,8 5 C10 1,5 0,0 0 Z"/></g>
    <g opacity="0.13" transform="translate(680,288) scale(0.62) rotate(14)"><path d="M0 0 C0 -7,-6 -9,-8 -5 C-10 -1,-5 0,0 0 Z"/><path d="M0 0 C0 -7,6 -9,8 -5 C10 -1,5 0,0 0 Z"/><path d="M0 0 C0 7,-6 9,-8 5 C-10 1,-5 0,0 0 Z"/><path d="M0 0 C0 7,6 9,8 5 C10 1,5 0,0 0 Z"/></g>
    <g opacity="0.2" transform="translate(742,272) scale(0.98) rotate(-38)"><path d="M0 0 C0 -7,-6 -9,-8 -5 C-10 -1,-5 0,0 0 Z"/><path d="M0 0 C0 -7,6 -9,8 -5 C10 -1,5 0,0 0 Z"/><path d="M0 0 C0 7,-6 9,-8 5 C-10 1,-5 0,0 0 Z"/><path d="M0 0 C0 7,6 9,8 5 C10 1,5 0,0 0 Z"/></g>
    <g opacity="0.15" transform="translate(806,286) scale(0.7) rotate(46)"><path d="M0 0 C0 -7,-6 -9,-8 -5 C-10 -1,-5 0,0 0 Z"/><path d="M0 0 C0 -7,6 -9,8 -5 C10 -1,5 0,0 0 Z"/><path d="M0 0 C0 7,-6 9,-8 5 C-10 1,-5 0,0 0 Z"/><path d="M0 0 C0 7,6 9,8 5 C10 1,5 0,0 0 Z"/></g>
    <g opacity="0.22" transform="translate(852,270) scale(1.08) rotate(-10)"><path d="M0 0 C0 -7,-6 -9,-8 -5 C-10 -1,-5 0,0 0 Z"/><path d="M0 0 C0 -7,6 -9,8 -5 C10 -1,5 0,0 0 Z"/><path d="M0 0 C0 7,-6 9,-8 5 C-10 1,-5 0,0 0 Z"/><path d="M0 0 C0 7,6 9,8 5 C10 1,5 0,0 0 Z"/></g>
  </g>
</svg>
